<?xml version="1.0" encoding="utf-8"?>
<!-- Generator: Adobe Illustrator 18.1.0, SVG Export Plug-In . SVG Version: 6.00 Build 0)  -->
<!DOCTYPE svg PUBLIC "-//W3C//DTD SVG 1.1//EN" "http://www.w3.org/Graphics/SVG/1.1/DTD/svg11.dtd">
<svg version="1.1" id="Layer_1" xmlns="http://www.w3.org/2000/svg" xmlns:xlink="http://www.w3.org/1999/xlink" x="0px" y="0px"
	 viewBox="0 0 612 792" enable-background="new 0 0 612 792" xml:space="preserve">
<g>
	<path fill="#F15A21" d="M183.7,379.8c-91.8,0-157-30.6-174.4-81.4C-19,215.3,89,103.8,248.9,49.6c56.6-19.1,114.9-29.4,167.4-29.4
		c91.8,0,157,30.6,174.4,81.4C619,184.7,511,296.2,351.1,350.4C294,369.4,236.2,379.8,183.7,379.8z"/>
	<g>
		<path d="M194.1,345.2c-75.1,0-129.3-23.7-142.6-61.8c-11-31.8,5.2-71,45.6-110.3c39.8-38.7,97-72.2,162.2-94.1
			c25.4-8.7,50.8-15,75.6-19.6c24.2-4,47.9-6.4,70.4-6.4c75.1,0,129.3,23.7,142.6,61.8C569.8,180,474.6,273,340.1,318.6
			c-25.4,8.7-50.8,15-75.6,19.6C240.3,343.5,216.6,345.2,194.1,345.2z M406,60c-22.5,0-45.6,2.3-69.9,6.4
			c-24.8,4.6-50.2,11-75.1,19.1c-64.1,21.9-120.7,54.3-159.9,92.4C63,214.9,46.8,253,56.6,281.8c12.1,35.8,64.7,57.7,136.8,57.7
			c22.5,0,45.6-2.3,69.9-6.4c24.8-4.6,50.2-11,75.1-19.1c131.7-44.4,225.2-134.5,204.4-196.9C530.7,81.9,478.2,60,406,60z"/>
	</g>
	<g>
		<path d="M154.8,186.4c-4,1.2-6.4,4-7.5,7.5c-1.2,3.5-1.2,7.5,0.6,12.1c1.7,5.2,4,8.1,7.5,10.4c2.9,1.7,6.4,1.7,10.4,0.6
			c1.7-0.6,3.5-1.2,4.6-2.3c1.7-1.2,2.9-1.7,4.6-2.9l2.3,5.8c-2.9,2.3-6.4,4-10.4,5.8c-5.8,2.3-11,2.3-15.6-0.6
			c-4.6-2.3-8.1-6.9-10.4-13.9c-1.7-4-2.3-8.1-1.7-12.1c0.6-3.5,1.7-6.9,4-9.8c2.3-2.9,5.2-4.6,9.2-6.4c4-1.7,8.1-2.3,12.7-1.7
			l-0.6,6.4c-1.7,0-3.5,0-5.2,0C157.7,185.3,156.6,185.8,154.8,186.4z"/>
		<path d="M188.3,196.2l5.8,16.2l-6.9,2.3l-15-40.4l11.5-4c5.2-1.7,9.2-2.3,12.7-1.2c3.5,1.2,5.8,3.5,6.9,7.5
			c1.7,5.2,0.6,9.8-4,13.9l17.9,13.9l-7.5,2.9l-15.6-12.7L188.3,196.2z M186,190.5l4.6-1.7c2.9-1.2,5.2-2.3,6.4-4
			c1.2-1.7,1.2-3.5,0-5.8c-0.6-2.3-2.3-3.5-4-4c-1.7-0.6-4,0-7.5,1.2l-4.6,1.7L186,190.5z"/>
		<path d="M241.4,148.9l9.8,26.6c1.2,2.9,1.2,5.8,1.2,8.7c-0.6,2.9-1.7,5.2-3.5,7.5s-4.6,4-8.1,5.2c-5.2,1.7-9.2,1.7-13.3,0.6
			c-4-1.7-6.4-4.6-8.1-9.2l-9.8-26l6.9-2.3l9.2,26c1.2,3.5,2.9,5.8,5.2,6.4c2.3,1.2,4.6,1.2,8.1,0c6.4-2.3,8.1-6.9,5.8-13.3
			l-9.2-25.4L241.4,148.9z"/>
		<path d="M287.1,165.6c1.2,3.5,1.2,6.9-0.6,9.8c-1.7,2.9-5.2,5.2-9.8,6.9c-4.6,1.7-8.7,2.3-12.1,1.7l-2.3-6.4c2.3,0,4.6,0,6.9,0
			c2.3,0,4-0.6,6.4-1.2c2.9-1.2,4.6-2.3,5.2-3.5c1.2-1.7,1.2-2.9,0.6-4.6c-0.6-1.7-1.7-2.3-2.9-3.5c-1.7-0.6-4.6-1.2-8.7-1.2
			s-7.5-1.2-9.8-2.3c-2.3-1.2-4-3.5-4.6-6.4c-1.2-3.5-1.2-6.4,0.6-9.2c1.7-2.9,4.6-5.2,8.7-6.4s8.1-1.7,12.7-1.7v6.4
			c-4,0-7.5,0-10.4,1.2c-2.3,0.6-3.5,1.7-4.6,3.5s-1.2,2.9-0.6,4c0.6,1.2,1.2,1.7,1.7,2.3c0.6,0.6,1.7,1.2,2.9,1.2
			c1.2,0,3.5,0.6,6.4,0.6c3.5,0,5.8,0.6,8.1,1.2c1.7,0.6,3.5,1.2,4.6,2.3C285.3,162.2,285.9,163.9,287.1,165.6z"/>
		<path d="M331.5,161.6l-6.9,2.3l-6.9-18.5l-18.5,6.9l6.9,18.5l-6.4,2.3l-15-40.4l6.9-2.3l6.4,16.7l18.5-6.9l-6.4-16.7l6.9-2.3
			L331.5,161.6z"/>
		<path d="M343.1,157.6l-15-40.4l6.9-2.3l15,40.4L343.1,157.6z"/>
		<path d="M395,138.5l-8.1,2.9l-31.8-24.8l0,0l0.6,1.7c1.7,3.5,2.9,6.4,4,9.2l7.5,21.4l-5.8,2.3l-15-40.4l8.1-2.9l31.8,24.8l0,0
			c0-0.6-0.6-1.7-1.7-4.6c-1.2-2.9-1.7-4.6-2.3-6.4l-8.1-21.4l6.4-2.3L395,138.5z"/>
		<path d="M415.2,106.2l15-5.8l7.5,20.2c-2.3,1.7-4,2.9-6.4,4c-2.3,1.2-4.6,2.3-6.9,3.5c-6.4,2.3-11.5,2.3-16.2,0
			c-4.7-2.3-8.1-6.9-10.4-13.3c-2.3-6.4-2.3-12.1,0-17.3c2.3-5.2,6.9-8.7,13.3-11.5c4-1.7,8.7-2.3,12.7-1.7l-0.6,6.4
			c-4-0.6-7.5,0-11,1.2c-4.6,1.7-7.5,4-8.7,8.1c-1.7,3.5-1.2,8.1,0.6,12.7c1.7,5.2,4.6,8.1,7.5,9.8c3.5,1.7,6.9,1.7,11,0
			c2.3-0.6,4.6-1.7,6.4-3.5l-4-10.4l-8.7,2.9L415.2,106.2z"/>
		<path d="M173.9,297.3l-6.9,2.9l-15.6-21.9c-0.6-1.2-1.7-2.3-2.9-4c-1.2-1.7-1.7-2.9-2.3-4c0,1.2,0.6,2.9,0.6,5.2s0.6,3.5,0.6,4.6
			l2.3,26.6l-7.5,2.9l-12.7-18.5l-12.7-18.5l6.9-2.3l14.4,21.4c2.3,3.5,4,6.4,5.8,9.2c-0.6-1.7-0.6-3.5-1.2-5.8
			c-0.6-2.3-0.6-4-0.6-5.2l-2.3-26l6.4-2.3l15.6,21.4c1.7,1.7,3.5,5.2,5.8,9.2c-0.6-2.9-1.2-6.4-1.7-11l-2.9-26l6.9-2.3L173.9,297.3
			z"/>
		<path d="M215.5,281.7l-8.1-9.8l-15.6,5.8v12.7l-6.9,2.3v-46.2l7.5-2.9l30,35.2L215.5,281.7z M203.3,267.3l-8.1-9.8
			c-0.6-0.6-1.2-1.7-2.3-2.9c-1.2-1.2-1.7-2.3-2.3-2.9c0.6,2.3,0.6,5.2,0.6,8.1v12.1L203.3,267.3z"/>
		<path d="M232.2,235.5c-4,1.2-6.4,4-7.5,7.5c-1.2,3.5-1.2,7.5,0.6,12.1c1.7,5.2,4,8.1,7.5,10.4c2.9,1.7,6.4,1.7,10.4,0.6
			c1.7-0.6,3.5-1.2,4.6-2.3c1.1-1.1,2.9-1.7,4.6-2.9l2.3,5.8c-2.9,2.3-6.4,4-10.4,5.8c-5.8,2.3-11,2.3-15.6-0.6
			c-4.6-2.9-8.1-6.9-10.4-13.9c-1.7-4-2.3-8.1-1.7-12.1c0.6-3.5,1.7-6.9,4-9.8s5.2-4.6,9.2-6.4c4-1.7,8.1-2.3,12.7-1.7l-0.6,6.4
			c-1.7,0-3.5,0-5.2,0C235.7,234.3,233.9,234.9,232.2,235.5z"/>
		<path d="M295.7,252.2l-7.5,2.9l-19.6-13.8l-2.9,4.6l5.8,15l-6.9,2.3l-15-40.4l6.9-2.3l6.9,19.6c1.2-2.9,1.7-5.8,2.9-8.7l6.3-16.7
			l7.5-2.9c-4,11-6.9,18.5-8.7,23.7L295.7,252.2z"/>
		<path d="M321.1,202.6c-4,1.2-6.4,4-7.5,7.5c-1.2,3.5-1.2,7.5,0.6,12.1c1.7,5.2,4,8.1,7.5,10.4c2.9,1.7,6.4,1.7,10.4,0.6
			c1.7-0.6,3.5-1.2,4.6-2.3c1.7-1.2,2.9-1.7,4.6-2.9l2.3,5.8c-2.9,2.3-6.4,4-10.4,5.8c-5.8,2.3-11,2.3-15.6-0.6
			c-4.6-2.9-8.1-6.9-10.4-13.9c-1.7-4-2.3-8.1-1.7-12.1c0.6-3.5,1.7-6.9,4-9.8c2.3-2.9,5.2-4.6,9.2-6.4c4-1.7,8.1-2.3,12.7-1.7
			l-0.6,6.4c-1.7,0-3.5,0-5.2,0C324.6,201.4,322.8,202,321.1,202.6z"/>
		<path d="M354.6,212.4l5.8,16.2l-6.4,2.3l-15-40.4l11.5-4c5.2-1.7,9.2-2.3,12.7-1.2c3.5,1.2,5.8,3.5,6.9,7.5
			c1.7,5.2,0.6,9.8-4,13.9l17.9,13.9l-7.5,2.9L361,210.7L354.6,212.4z M352.3,206.6l4.6-1.7c2.9-1.2,5.2-2.3,6.4-4
			c1.2-1.7,1.2-3.5,0-5.8c-0.6-2.3-2.3-3.5-4-4c-1.7-0.5-4,0-7.5,1.2l-4.6,1.7L352.3,206.6z"/>
		<path d="M414.6,208.4l-23.1,8.7l-15-40.4l23.1-8.7l2.3,5.8l-16.2,5.8l4,11l15.6-5.8l2.3,5.8l-15.6,5.8l4.6,12.7l16.2-5.8
			L414.6,208.4z"/>
		<path d="M463.1,190.5l-6.9,2.9l-15.6-22c-0.6-1.2-1.7-2.3-2.9-4c-1.2-1.7-1.7-2.9-2.3-4c0,1.2,0.6,2.9,0.6,5.2s0.6,3.5,0.6,4.6
			l2.3,26.6l-6.9,2.9l-12.7-18.5l-12.7-18.6l6.9-2.3l14.4,21.4c2.3,3.5,4,6.4,5.8,9.2c-0.6-1.7-0.6-3.5-1.2-5.8s-0.6-4-0.6-5.2
			l-2.3-26l6.4-2.3l15.6,21.4c1.7,1.7,3.5,5.2,5.8,9.2c-0.6-2.9-1.2-6.4-1.7-11l-2.9-26l6.9-2.3L463.1,190.5z"/>
		<path d="M500.7,164.5c1.2,3.5,1.2,6.9-0.6,9.8c-1.7,2.9-5.2,5.2-9.8,6.9s-8.7,2.3-12.1,1.7l-2.3-6.4c2.3,0,4.6,0,6.9,0
			c2.3,0,4-0.6,6.4-1.2c2.9-1.2,4.6-2.3,5.2-3.5c1.2-1.7,1.2-2.9,0.6-4.6c-0.6-1.7-1.7-2.3-2.9-3.5c-1.7-0.6-4.6-1.2-8.7-1.2
			c-4,0-7.5-1.2-9.8-2.3c-2.3-1.2-4-3.5-4.6-6.4c-1.2-3.5-1.2-6.4,0.6-9.2c1.7-2.9,4.6-5.2,8.7-6.4c4.1-1.2,8.1-1.7,12.7-1.7v6.4
			c-4,0-7.5,0-10.4,1.2c-2.3,0.6-3.5,1.7-4.6,3.5c-0.6,1.2-1.2,2.9-0.6,4c0.6,1.2,1.2,1.7,1.7,2.3s1.7,1.2,2.9,1.2
			c1.2,0,3.5,0.6,6.4,0.6c3.5,0,5.8,0.6,8.1,1.2c2.3,0.6,3.5,1.2,4.6,2.3C498.9,161,500.1,162.7,500.7,164.5z"/>
	</g>
</g>
</svg>
