<svg xmlns="http://www.w3.org/2000/svg" xmlns:xlink="http://www.w3.org/1999/xlink" viewBox="0 0 108 108">
  <defs>
    <circle id="a" cx="53.8" cy="53.9" r="42.8"/>
  </defs>
  <clipPath id="b">
    <use xlink:href="#a" overflow="visible"/>
  </clipPath>
  <circle clip-path="url(#b)" fill="#FFF" cx="53.8" cy="53.9" r="42.8"/>
  <path clip-path="url(#b)" fill="#00AEEF" d="M53.9 32.6c-14 0-25.4 7.2-25.4 16.1 0 3.9 2.2 7.7 6.2 10.6.4.3 1.1.7 1.6 1l-4.6 9.2c-.1.3-.1.6.1.9.1.1.3.2.5.2.1 0 .2 0 .4-.1 4.5-2.4 11.8-6.2 13-6.6 2.6.6 5.3.8 8.1.8 14 0 25.4-7.2 25.4-16.1.1-8.8-11.3-16-25.3-16z"/>
</svg>
