<?xml version="1.0" encoding="utf-8"?>
<!-- Generator: Adobe Illustrator 18.1.0, SVG Export Plug-In . SVG Version: 6.00 Build 0)  -->
<!DOCTYPE svg PUBLIC "-//W3C//DTD SVG 1.1//EN" "http://www.w3.org/Graphics/SVG/1.1/DTD/svg11.dtd">
<svg version="1.1" id="Layer_1" xmlns="http://www.w3.org/2000/svg" xmlns:xlink="http://www.w3.org/1999/xlink" x="0px" y="0px"
	 viewBox="0 0 612 792" enable-background="new 0 0 612 792" xml:space="preserve">
<g>
	<path fill="#F15A21" d="M183.7,379.8c-91.8,0-157-30.6-174.4-81.4C-19,215.3,89,103.8,248.9,49.6c56.6-19.1,114.9-29.4,167.4-29.4
		c91.8,0,157,30.6,174.4,81.4C619,184.7,511,296.2,351.1,350.4C294,369.4,236.2,379.8,183.7,379.8z"/>
	<g>
		<path d="M194.1,345.2c-75.1,0-129.3-23.7-142.6-61.8c-11-31.8,5.2-71,45.6-110.3c39.8-38.7,97-72.2,162.2-94.1
			c25.4-8.7,50.8-15,75.6-19.6c24.2-4,47.9-6.4,70.4-6.4c75.1,0,129.3,23.7,142.6,61.8C569.8,180,474.6,273,340.1,318.6
			c-25.4,8.7-50.8,15-75.6,19.6C240.3,343.5,216.6,345.2,194.1,345.2z M406,60c-22.5,0-45.6,2.3-69.9,6.4
			c-24.8,4.6-50.2,11-75.1,19.1c-64.1,21.9-120.7,54.3-159.9,92.4C63,214.9,46.8,253,56.6,281.8c12.1,35.8,64.7,57.7,136.8,57.7
			c22.5,0,45.6-2.3,69.9-6.4c24.8-4.6,50.2-11,75.1-19.1c131.7-44.4,225.2-134.5,204.4-196.9C530.7,81.9,478.2,60,406,60z"/>
	</g>
	<g>
		<g>
			<path d="M194.1,207.8c1.2,3.5,1.2,6.9-0.6,9.8c-1.7,2.9-5.2,5.2-9.8,6.9c-4.6,1.7-8.7,2.3-12.1,2.3l-2.3-6.4c2.3,0,4.6,0,6.9,0
				s4-0.6,6.4-1.2c2.9-1.2,4.6-2.3,5.2-3.5s1.2-2.9,0.6-4.6c-0.6-1.7-1.7-2.3-2.9-3.5s-4.6-1.2-8.7-1.2s-7.5-1.2-9.8-2.3
				c-2.3-1.2-4-3.5-4.6-6.4c-1.2-3.5-1.2-6.4,0.6-9.2c1.7-2.9,4.6-5.2,8.7-6.4c4.1-1.2,8.1-1.7,12.7-1.7v6.4c-4,0-7.5,0-10.4,1.2
				c-2.3,0.6-3.5,1.7-4.6,3.5c-0.6,1.2-1.2,2.9-0.6,4c0.6,1.2,1.2,1.7,1.7,2.3c0.6,0.6,1.7,1.2,2.9,1.2s3.5,0.6,6.4,0.6
				c3.5,0,5.8,0.6,8.1,1.2c1.7,0.6,3.5,1.2,4.6,2.3C192.9,204.3,193.5,206.1,194.1,207.8z"/>
			<path d="M223.5,177.2c1.7,4,1.2,8.1-0.6,11.5c-1.7,3.5-5.2,5.8-10.4,7.5l-4,1.7l5.8,15l-6.9,2.3l-15-40.4l11.5-4.6
				c5.2-1.7,9.2-2.3,12.7-1.2C219.5,170.8,221.8,173.1,223.5,177.2z M206.2,192.2l3.5-1.2c3.5-1.2,5.8-2.9,6.9-4.6
				c1.2-1.7,1.2-4,0.6-6.4c-0.6-2.3-2.3-4-4-4.6c-1.7-0.6-4-0.6-7.5,0.6l-4.6,1.7L206.2,192.2z"/>
			<path d="M242.6,202.6l-15-40.4l6.4-2.3l15,40.4L242.6,202.6z"/>
			<path d="M274.9,190.5l-6.4,2.3l-12.7-34.6l-12,4.5l-2.3-5.8l30.6-11.5l2.3,5.8l-12.1,4.6L274.9,190.5z"/>
			<path d="M310.7,177.2l-6.4,2.3l-12.7-34.6l-12.1,4.6l-2.3-5.8l30.6-11.5l2.3,5.8l-12.1,4.6L310.7,177.2z"/>
			<path d="M329.8,170.3l-15-40.4l6.4-2.3l15,40.4L329.8,170.3z"/>
			<path d="M381.7,150.6l-8.1,2.9l-31.7-24.8l0,0l0.6,1.7c1.7,3.5,2.9,6.4,4,9.2l8.1,21.4l-5.8,2.3l-15-40.4l8.1-2.9l31.8,24.8l0,0
				c0-0.6-0.6-1.7-1.7-4.6c-1.2-2.9-1.7-4.6-2.3-6.4l-8.1-21.4l6.4-2.3L381.7,150.6z"/>
			<path d="M401.9,118.3l15-5.8l7.5,20.2c-2.3,1.7-4,2.9-6.4,4c-2.3,1.2-4.6,2.3-6.9,3.5c-6.4,2.3-11.5,2.3-16.2,0
				c-4.7-2.3-8.1-6.9-11-13.3c-2.3-6.4-2.3-12.1,0-17.3c2.3-5.2,6.9-8.7,13.3-11.5c4-1.7,8.7-2.3,12.7-1.7v6.4c-4-0.6-7.5,0-11,1.2
				c-4.6,1.7-7.5,4-8.7,8.1c-1.7,3.5-1.2,8.1,0.6,12.7c1.7,5.2,4.6,8.1,7.5,9.8c3.5,1.7,6.9,1.7,11,0c2.3-0.6,4.6-1.7,6.4-3.5
				l-4-10.4l-8.7,2.9L401.9,118.3z"/>
			<path d="M178.5,303.6l-7.5,2.9l-19.6-13.8l-2.9,4.6l5.8,15l-6.4,2.3l-15-40.4l6.4-2.3l6.9,19.6c1.2-2.9,1.7-5.8,2.9-8.7l6.4-16.7
				l7.5-2.9c-4,11-6.9,18.5-8.7,23.7L178.5,303.6z"/>
			<path d="M219.5,288.6l-8.1,2.9l-31.7-24.8l0,0l0.6,1.7c1.7,3.5,2.9,6.4,4,9.2l8.1,21.4l-5.8,2.3l-15-40.4l8.1-2.9l31.8,24.8l0,0
				c0-0.6-0.6-1.7-1.7-4.6c-1.2-2.9-1.7-4.6-2.3-6.4l-8.1-21.4l6.4-2.3L219.5,288.6z"/>
			<path d="M259.9,250.5c2.3,6.4,2.9,12.1,0.6,17.3c-1.7,4.6-5.8,8.7-12.1,11s-11.5,2.3-16.2,0c-4.7-2.3-8.1-6.9-10.4-13.9
				c-2.3-6.9-2.9-12.7-0.6-17.3c2.3-4.6,5.8-8.1,12.1-10.4c5.8-2.3,11.5-2.3,16.2,0C253.6,239.5,257,244.2,259.9,250.5z
				 M228.7,262.1c1.7,5.2,4,8.7,7.5,10.4c2.9,1.7,6.4,1.7,10.4,0.6c4-1.7,6.4-4,7.5-6.9c1.2-3.5,0.6-7.5-1.2-12.7
				c-1.7-5.2-4-8.7-6.9-10.4c-2.9-1.7-6.4-2.3-10.4-0.6s-6.4,4-7.5,6.9C226.4,252.8,227,256.9,228.7,262.1z"/>
			<path d="M314.2,253.4l-6.9,2.9l-15.6-21.9c-0.6-1.2-1.7-2.3-2.9-4s-1.7-2.9-2.3-4c0,1.2,0.6,2.9,0.6,5.2s0.6,3.5,0.6,4.6
				l2.3,26.6l-6.9,2.9l-12.7-18.5l-12.8-18.6l6.9-2.3l14.4,21.4c2.3,3.5,4,6.4,5.8,9.2c-0.6-1.7-0.6-3.5-1.2-5.8
				c-0.6-2.3-0.6-4-0.6-5.2l-2.3-26l6.4-2.3l15.6,21.4c1.7,1.7,3.5,5.2,5.8,9.2c-0.6-2.9-1.2-6.4-1.7-11l-2.9-26l6.9-2.3
				L314.2,253.4z"/>
			<path d="M331.5,247l-15-40.4l6.4-2.3l12.7,34.7l17.3-6.4l2.3,5.8L331.5,247z"/>
			<path d="M386.4,226.8l-23.1,8.7l-15-40.4l23.1-8.7l2.3,5.8l-16.2,5.8l4,11l15-5.8l2.3,5.8l-15.6,5.8l4.6,12.7l16.2-5.8
				L386.4,226.8z"/>
			<path d="M421,190.5c2.3,6.9,2.3,12.7,0,17.3c-2.3,5.2-6.9,8.7-13.9,11.5l-11.5,4l-15-40.4l12.7-4.6c6.4-2.3,12.1-2.3,16.7-0.6
				C415.2,180.1,418.7,184.1,421,190.5z M414.1,193.3c-3.5-9.8-9.8-12.7-19.1-9.8l-5.8,2.3l11,29.4l4.6-1.7
				C414.6,210.1,418.1,203.2,414.1,193.3z"/>
			<path d="M447,179.5l15-5.8l7.5,20.2c-2.3,1.7-4,2.9-6.4,4c-2.3,1.2-4.6,2.3-6.9,3.5c-6.4,2.3-11.5,2.3-16.2,0
				c-4.6-2.3-8.1-6.9-11-13.3c-2.3-6.4-2.3-12.1,0-17.3c2.3-5.2,6.9-8.7,13.3-11.5c4-1.7,8.7-2.3,12.7-1.7l-0.6,6.4
				c-4-0.6-7.5,0-11,1.2c-4.6,1.7-7.5,4-8.7,8.1c-1.7,3.5-1.2,8.1,0.6,12.7c1.7,5.2,4.6,8.1,7.5,9.8c3.5,1.7,6.9,1.7,11,0
				c2.3-0.6,4.6-1.7,6.4-3.5l-4-10.4l-8.6,2.8L447,179.5z"/>
			<path d="M503.6,183.5l-23.1,8.7l-15-40.4l23.1-8.7l2.3,5.8l-16.2,5.8l4,11l15.6-5.8l2.3,5.8l-15.6,5.8l4.6,12.7l16.2-5.8
				L503.6,183.5z"/>
		</g>
	</g>
</g>
</svg>
